# xmcd
#
# Track frame offsets: 
#        150
#        17887
#        31375
#        66580
#        88135
#        99583
#        115783
#        130418
#        151675
#        168447
#        190067
#        209017
#        231567
#        244414
#        256627
#
# Disc length: 3545 seconds
#
# Revision: 0
# Processed by: cddbd v1.5.2PL0 Copyright (c) Steve Scherf et al.
# Submitted via: ExactAudioCopyFreeDBPlugin 1.0
#
DISCID=d40dd70f
DTITLE=Various Artist - Muddy Waters All Star Tribute To A Legend
DYEAR=2011
DGENRE=Blues
TTITLE0=Taylor - I'm Ready
TTITLE1=Taylor - Long Distance Call
TTITLE2=Guy - She's 19 Years Old
TTITLE3=Musselwhite - I Got A Rich Man's Woman
TTITLE4=Wolf - Rollin' and Tumblin'
TTITLE5=Gravenites - Forty Days and Forty Nights
TTITLE6=Shannon - Gypsy Woman
TTITLE7=Hiatt - The Same Thing
TTITLE8=Keb Mo - I Can't Be Satisfied
TTITLE9=Snow - Just To be With You
TTITLE10=Junior, Lockwood - Mean Red Spider
TTITLE11=Morganfield - Hoochie Coochie Man
TTITLE12=Morganfield - Got My Mojo Working
TTITLE13=Waters - Trouble No More
TTITLE14=Unknown Artist - [Untitled}
EXTD=
EXTT0=
EXTT1=
EXTT2=
EXTT3=
EXTT4=
EXTT5=
EXTT6=
EXTT7=
EXTT8=
EXTT9=
EXTT10=
EXTT11=
EXTT12=
EXTT13=
EXTT14=
PLAYORDER=
